<svg width="200" height="200" viewBox="0 0 200 200" xmlns="http://www.w3.org/2000/svg">
  <defs>
    <radialGradient id="grad1" cx="50%" cy="50%" r="50%">
      <stop offset="0%" style="stop-color:#132F49;stop-opacity:1" />
      <stop offset="100%" style="stop-color:#132F49;stop-opacity:0.1" />
    </radialGradient>
  </defs>

  <circle cx="100" cy="100" r="95" fill="url(#grad1)" stroke="#132F49" stroke-width="2"/>

  <g stroke="#132F49" stroke-width="2" fill="none">
    <circle cx="100" cy="100" r="80"/>
    <circle cx="100" cy="100" r="60"/>
    <circle cx="100" cy="100" r="40"/>
    <line x1="20" y1="100" x2="180" y2="100"/>
    <line x1="100" y1="20" x2="100" y2="180"/>
    <line x1="40" y1="40" x2="160" y2="160"/>
    <line x1="40" y1="160" x2="160" y2="40"/>
  </g>

  <polygon points="100,60 130,80 130,120 100,140 70,120 70,80"
           fill="#132F49" stroke="white" stroke-width="2"/>

  <circle cx="100" cy="100" r="10" fill="white"/>

  <g fill="white">
    <circle cx="100" cy="20" r="2"/>
    <circle cx="180" cy="100" r="2"/>
    <circle cx="100" cy="180" r="2"/>
    <circle cx="20" cy="100" r="2"/>
    <circle cx="140" cy="40" r="2"/>
    <circle cx="60" cy="160" r="2"/>
    <circle cx="60" cy="40" r="2"/>
    <circle cx="140" cy="160" r="2"/>
  </g>
</svg>
